<svg id="Layer_1" data-name="Layer 1" xmlns="http://www.w3.org/2000/svg" xmlns:xlink="http://www.w3.org/1999/xlink" viewBox="0 0 469.97 407.01"><defs><style>.cls-1{fill:#2aa1db;}.cls-2{fill:url(#linear-gradient);}.cls-3{fill:#f0efef;opacity:0.82;}</style><linearGradient id="linear-gradient" x1="115.89" y1="75.81" x2="115.89" y2="232.53" gradientUnits="userSpaceOnUse"><stop offset="0" stop-color="#f08740"/><stop offset="1" stop-color="#e93e3a"/></linearGradient></defs><polygon class="cls-1" points="352.48 0 117.49 0 0 203.5 117.49 407.01 352.48 407.01 469.97 203.5 352.48 0"/><circle class="cls-2" cx="115.89" cy="144.89" r="95.29"/><path class="cls-3" d="M484,458.44a73.38,73.38,0,0,1-73.38,73.38H169.18a57.89,57.89,0,0,1,0-115.77,56.94,56.94,0,0,1,9.48.78c0-.51,0-1,0-1.53a105.24,105.24,0,0,1,207.22-26A73.43,73.43,0,0,1,484,458.44Z" transform="translate(-62.65 -217.44)"/></svg>